<?xml version="1.0" standalone="no"?>
<!DOCTYPE svg PUBLIC "-//W3C//DTD SVG 20010904//EN"
 "http://www.w3.org/TR/2001/REC-SVG-20010904/DTD/svg10.dtd">
<svg version="1.0" xmlns="http://www.w3.org/2000/svg"
 width="512.000000pt" height="512.000000pt" viewBox="0 0 512.000000 512.000000"
 preserveAspectRatio="xMidYMid meet">
<metadata>
Created by potrace 1.11, written by Peter Selinger 2001-2013
</metadata>
<g transform="translate(0.000000,512.000000) scale(0.100000,-0.100000)"
fill="#000000" stroke="none">
<path d="M0 2560 l0 -2560 2560 0 2560 0 0 2560 0 2560 -2560 0 -2560 0 0
-2560z m2348 1172 l2 -962 -962 2 -963 3 -3 950 c-1 523 0 956 3 963 3 10 201
12 962 10 l958 -3 3 -963z m2342 471 l0 -488 -350 350 -350 350 -150 -150
-150 -150 500 -500 500 -500 0 -173 0 -172 -960 0 -960 0 0 492 0 493 353
-353 352 -352 150 150 150 150 -503 503 -502 502 0 168 0 167 960 0 960 0 0
-487z m-2340 -2345 l0 -493 -353 353 -352 352 -150 -150 -150 -150 503 -503
502 -502 0 -168 0 -167 -960 0 -960 0 0 487 0 488 350 -350 350 -350 150 150
150 150 -500 500 -500 500 0 173 0 172 960 0 960 0 0 -492z m2345 -473 l0
-960 -960 0 -960 0 -3 963 -2 962 962 -2 963 -3 0 -960z"/>
</g>
</svg>
