<svg height="512pt" viewBox="0 0 512 512" width="512pt" xmlns="http://www.w3.org/2000/svg" fill="blue">
  <path
    d="m502 492h-44v-13.28125c0-5.523438-4.476562-10-10-10s-10 4.476562-10 10v13.28125h-172v-13.28125c0-5.523438-4.476562-10-10-10s-10 4.476562-10 10v13.28125h-172v-13.28125c0-5.523438-4.476562-10-10-10s-10 4.476562-10 10v13.28125h-44c-5.523438 0-10 4.476562-10 10s4.476562 10 10 10h492c5.523438 0 10-4.476562 10-10s-4.476562-10-10-10zm0 0" />
  <path
    d="m502 428h-142.597656c27.058594-10.945312 52.335937-26.242188 74.972656-45.539062v8.238281c0 5.523437 4.476562 10 10 10s10-4.476563 10-10v-31.398438c0-5.523437-4.476562-10-10-10h-31.398438c-5.523437 0-10 4.476563-10 10 0 5.523438 4.476563 10 10 10h5.976563c-45.730469 38.003907-102.75 58.699219-162.953125 58.699219s-117.222656-20.695312-162.953125-58.699219h5.976563c5.523437 0 10-4.476562 10-10 0-5.523437-4.476563-10-10-10h-31.398438c-5.523438 0-10 4.476563-10 10v31.398438c0 5.523437 4.476562 10 10 10s10-4.476563 10-10v-8.238281c22.636719 19.292968 47.914062 34.589843 74.972656 45.539062h-102.597656c-5.523438 0-10 4.476562-10 10s4.476562 10 10 10h100.128906v13.28125c0 5.523438 4.476563 10 10 10 5.519532 0 10-4.476562 10-10v-13.28125h172v13.28125c0 5.523438 4.476563 10 10 10 5.519532 0 10-4.476562 10-10v-13.28125h139.871094c5.523438 0 10-4.476562 10-10s-4.476562-10-10-10zm0 0" />
  <path
    d="m10 448c2.628906 0 5.210938-1.070312 7.070312-2.929688 1.859376-1.859374 2.929688-4.441406 2.929688-7.070312s-1.070312-5.210938-2.929688-7.070312c-1.859374-1.859376-4.441406-2.929688-7.070312-2.929688s-5.210938 1.070312-7.070312 2.929688c-1.859376 1.859374-2.929688 4.441406-2.929688 7.070312s1.070312 5.210938 2.929688 7.070312c1.859374 1.859376 4.441406 2.929688 7.070312 2.929688zm0 0" />
  <path
    d="m256 385c56.964844 0 103.304688-46.226562 103.304688-103.050781 0-23.542969-8.160157-46.542969-22.992188-64.808594-.019531-.027344-.039062-.050781-.058594-.078125l-64.101562-82.308594c-3.824219-4.914062-9.585938-7.738281-15.8125-7.753906-.015625 0-.03125 0-.050782 0-6.203124 0-11.964843 2.796875-15.800781 7.679688l-64.371093 81.863281c-.144532.1875-.285157.375-.414063.570312-14.847656 18.277344-23.007813 41.261719-23.007813 64.835938 0 56.824219 46.339844 103.050781 103.304688 103.050781zm-64.265625-155.898438c.25-.300781.480469-.617187.691406-.941406l63.808594-81.152344c.027344-.011718.089844-.011718.140625.03125l63.902344 82.058594c.109375.148438.21875.296875.339844.4375 12.050781 14.746094 18.6875 33.363282 18.6875 52.414063 0 45.796875-37.371094 83.050781-83.304688 83.050781-45.9375 0-83.308594-37.253906-83.308594-83.050781.003906-19.257813 6.765625-38.023438 19.042969-52.847657zm0 0" />
  <path
    d="m430 203.652344c45.214844 0 82-36.695313 82-81.800782 0-18.679687-6.472656-36.929687-18.230469-51.425781-.011719-.015625-.027343-.03125-.039062-.046875l-49.460938-63.515625c-3.386719-4.347656-8.492187-6.8515622-14-6.863281-.015625 0-.03125 0-.042969 0-5.496093 0-10.59375 2.476562-13.992187 6.796875l-49.671875 63.171875c-.125.160156-.246094.324219-.363281.492188-11.742188 14.496093-18.199219 32.710937-18.199219 51.390624 0 45.105469 36.785156 81.800782 82 81.800782zm-47.832031-121.125c.226562-.273438.441406-.5625.636719-.855469l47.414062-60.300781 47.558594 61.074218c.101562.136719.207031.273438.316406.40625 8.96875 10.972657 13.90625 24.824219 13.90625 39 0 34.078126-27.8125 61.800782-62 61.800782s-62-27.722656-62-61.800782c0-14.332031 5.03125-28.296874 14.167969-39.324218zm0 0" />
  <path
    d="m82 203.652344c45.214844 0 82-36.695313 82-81.800782 0-18.679687-6.457031-36.894531-18.199219-51.390624-.117187-.167969-.238281-.332032-.363281-.492188l-49.671875-63.171875c-3.398437-4.320313-8.496094-6.796875-13.992187-6.796875-.011719 0-.027344 0-.042969 0-5.507813.0117188-10.613281 2.515625-14 6.863281l-49.460938 63.515625c-.011719.015625-.023437.03125-.035156.046875-11.761719 14.496094-18.234375 32.746094-18.234375 51.425781 0 45.105469 36.785156 81.800782 82 81.800782zm-48.09375-120.800782c.109375-.132812.214844-.269531.316406-.40625l47.558594-61.074218 47.414062 60.296875c.195313.296875.40625.585937.636719.863281 9.136719 11.023438 14.167969 24.988281 14.167969 39.320312 0 34.078126-27.8125 61.800782-62 61.800782s-62-27.722656-62-61.800782c0-14.175781 4.9375-28.027343 13.90625-39zm0 0" />
  <path
    d="m256 330c26.550781 0 48.152344-21.554688 48.152344-48.050781 0-5.523438-4.476563-10-10-10-5.519532 0-10 4.476562-10 10 0 15.46875-12.628906 28.050781-28.152344 28.050781-5.523438 0-10 4.476562-10 10s4.476562 10 10 10zm0 0" />
  </svg>