<svg height="480pt" viewBox="-24 0 480 480" width="480pt" xmlns="http://www.w3.org/2000/svg"><path d="m430.199219 91.199219-72-88.238281c-1.515625-1.871094-3.792969-2.95703175-6.199219-2.960938h-264c-13.253906 0-24 10.746094-24 24v24h16v-24c0-4.417969 3.582031-8 8-8h256v64c0 13.253906 10.746094 24 24 24h48v352c0 4.417969-3.582031 8-8 8h-320c-4.417969 0-8-3.582031-8-8v-8h-16v8c0 13.253906 10.746094 24 24 24h320c13.253906 0 24-10.746094 24-24v-359.761719c-.003906-1.835937-.640625-3.613281-1.800781-5.039062zm-70.199219-11.199219v-49.519531l46.945312 57.519531h-38.945312c-4.417969 0-8-3.582031-8-8zm0 0"/><path d="m24 352h144c13.253906 0 24-10.746094 24-24v-240c0-13.253906-10.746094-24-24-24h-144c-13.253906 0-24 10.746094-24 24v240c0 13.253906 10.746094 24 24 24zm144-16h-144c-4.417969 0-8-3.582031-8-8v-24h160v24c0 4.417969-3.582031 8-8 8zm-152-48v-184h160v184zm8-208h144c4.417969 0 8 3.582031 8 8h-160c0-4.417969 3.582031-8 8-8zm0 0"/><path d="m80 312h32v16h-32zm0 0"/><path d="m282.976562 431.433594 40-16c3.042969-1.214844 5.039063-4.160156 5.039063-7.433594s-1.996094-6.21875-5.039063-7.433594l-40-16c-.949218-.375-1.957031-.566406-2.976562-.566406h-256c-13.253906 0-24 10.746094-24 24s10.746094 24 24 24h256c1.019531 0 2.027344-.191406 2.976562-.566406zm-18.976562-15.433594h-216v-16h216zm34.464844-8-18.464844 7.382812v-14.765624zm-282.464844 0c0-4.417969 3.582031-8 8-8h8v16h-8c-4.417969 0-8-3.582031-8-8zm0 0"/><path d="m224 128v64c0 4.417969 3.582031 8 8 8h64c4.417969 0 8-3.582031 8-8v-24h-16v16h-48v-48h40v-16h-48c-4.417969 0-8 3.582031-8 8zm0 0"/><path d="m224 304c0 4.417969 3.582031 8 8 8h64c4.417969 0 8-3.582031 8-8v-64c0-4.417969-3.582031-8-8-8h-64c-4.417969 0-8 3.582031-8 8zm16-56h48v48h-48zm0 0"/><path d="m253.65625 138.34375-11.3125 11.3125 24 24c3.125 3.121094 8.1875 3.121094 11.3125 0l40-40-11.3125-11.3125-34.34375 34.34375zm0 0"/><path d="m112 200h-48v-48h40v-16h-48c-4.417969 0-8 3.582031-8 8v64c0 4.417969 3.582031 8 8 8h64c4.417969 0 8-3.582031 8-8v-24h-16zm0 0"/><path d="m77.65625 154.34375-11.3125 11.3125 24 24c3.125 3.121094 8.1875 3.121094 11.3125 0l40-40-11.3125-11.3125-34.34375 34.34375zm0 0"/><path d="m320 144h48v16h-48zm0 0"/><path d="m320 176h80v16h-80zm0 0"/><path d="m320 280h80v16h-80zm0 0"/><path d="m320 248h80v16h-80zm0 0"/></svg>