<svg version="1.1" id="Capa_1" xmlns="http://www.w3.org/2000/svg" xmlns:xlink="http://www.w3.org/1999/xlink" x="0px"
	y="0px" width="54.947px" height="54.947px" viewBox="0 0 54.947 54.947"
	style="enable-background:new 0 0 54.947 54.947;" xml:space="preserve">
	<g>
		<g id="_x32_6">
			<g>
				<path d="M53.106,8.76l-6.952-6.962c-2.395-2.398-6.292-2.398-8.688,0L25.301,13.981c-2.396,2.399-2.396,6.306,0,8.705
				c0.48,0.48,1.259,0.48,1.738,0c0.479-0.481,0.479-1.26,0-1.741c-1.438-1.439-1.438-3.783,0-5.224L39.203,3.539
				c1.438-1.437,3.777-1.437,5.214,0l6.95,6.963c1.438,1.439,1.438,3.783,0,5.224L39.203,27.908c-1.393,1.395-3.82,1.395-5.213,0
				c-0.48-0.48-1.258-0.48-1.737,0s-0.479,1.26,0,1.74c1.159,1.163,2.702,1.803,4.345,1.803c1.642,0,3.185-0.64,4.344-1.803
				l12.165-12.184C55.501,15.065,55.501,11.16,53.106,8.76z M27.907,32.26c-0.479,0.48-0.479,1.26,0,1.74
				c1.438,1.439,1.438,3.783,0,5.224L15.743,51.406c-1.438,1.438-3.777,1.438-5.214,0l-6.95-6.962c-1.438-1.438-1.438-3.782,0-5.224
				l12.164-12.184c1.393-1.396,3.82-1.396,5.213,0c0.48,0.48,1.258,0.48,1.737,0s0.479-1.261,0-1.741
				c-2.318-2.327-6.369-2.327-8.688,0L1.842,37.48c-2.396,2.398-2.396,6.307,0,8.705l6.95,6.961c1.197,1.2,2.771,1.801,4.345,1.801
				s3.146-0.601,4.345-1.801l12.165-12.184c2.396-2.398,2.396-6.305,0-8.705C29.165,31.778,28.389,31.778,27.907,32.26z
				 M12.27,42.705c0.238,0.239,0.554,0.359,0.867,0.359c0.314,0,0.63-0.12,0.869-0.359l27.805-27.854c0.479-0.48,0.479-1.26,0-1.74
				c-0.48-0.48-1.259-0.48-1.737,0L12.27,40.965C11.788,41.444,11.788,42.225,12.27,42.705z" />
			</g>
		</g>
	</g>
</svg>